<svg xmlns="http://www.w3.org/2000/svg" width="112" height="22.155" viewBox="0 0 112 22.155">
  <g id="Group_420" data-name="Group 420" transform="translate(-1194 -435)">
    <g id="visa" transform="translate(1193.919 435)">
      <rect id="Rectangle_544" data-name="Rectangle 544" width="32" height="22" rx="4" transform="translate(0.081 0.078)" fill="#fcfcfc"/>
      <g id="Group_410" data-name="Group 410" transform="translate(3.001 7.115)">
        <path id="Path_283" data-name="Path 283" d="M73.141,103.663l1.308-7.678h2.093l-1.309,7.678Z" transform="translate(-64.035 -95.852)" fill="#005098"/>
        <path id="Path_284" data-name="Path 284" d="M86.792,96.019a5.407,5.407,0,0,0-1.876-.323c-2.068,0-3.524,1.041-3.537,2.534-.012,1.1,1.04,1.718,1.834,2.086.815.376,1.088.616,1.085.952-.005.515-.65.75-1.252.75a4.387,4.387,0,0,1-1.969-.4l-.27-.122-.294,1.718a6.619,6.619,0,0,0,2.331.41c2.2,0,3.627-1.029,3.644-2.623.008-.873-.55-1.538-1.757-2.086-.732-.355-1.179-.592-1.175-.952,0-.319.379-.66,1.2-.66a3.862,3.862,0,0,1,1.567.294l.187.089.284-1.664" transform="translate(-68.004 -95.696)" fill="#005098"/>
        <path id="Path_285" data-name="Path 285" d="M98.953,96H97.335a1.041,1.041,0,0,0-1.1.637l-3.108,7.036h2.2s.359-.946.44-1.153l2.68,0c.062.269.254,1.15.254,1.15h1.942L98.953,96m-2.581,4.948c.173-.442.834-2.146.834-2.146-.012.02.172-.444.278-.733l.141.662.485,2.217Z" transform="translate(-74.799 -95.86)" fill="#005098"/>
        <path id="Path_286" data-name="Path 286" d="M63.312,96l-2.049,5.235-.218-1.064a5.991,5.991,0,0,0-2.9-3.22l1.873,6.714,2.214,0L65.529,96H63.312" transform="translate(-55.962 -95.858)" fill="#005098"/>
        <path id="Path_287" data-name="Path 287" d="M56.813,95.987H53.439l-.027.16a6.926,6.926,0,0,1,5.084,4.016l-.734-3.528a.876.876,0,0,0-.949-.648" transform="translate(-53.412 -95.853)" fill="#f6a500"/>
      </g>
      <path id="Path_288" data-name="Path 288" d="M79.721,84.9H47.412V82.127a1.846,1.846,0,0,1,1.846-1.846H77.875a1.846,1.846,0,0,1,1.846,1.846Z" transform="translate(-47.18 -80.28)" fill="#0a5296"/>
      <path id="Path_289" data-name="Path 289" d="M47.412,118.281H79.721v2.769a1.846,1.846,0,0,1-1.846,1.846H49.258a1.846,1.846,0,0,1-1.846-1.846Z" transform="translate(-47.18 -100.741)" fill="#f4a428"/>
    </g>
    <g id="master" transform="translate(1234.076 434.923)">
      <rect id="Rectangle_545" data-name="Rectangle 545" width="32" height="22" rx="4" transform="translate(-0.075 0.077)" fill="#192169"/>
      <g id="Group_411" data-name="Group 411" transform="translate(3.809 4.154)">
        <path id="Path_290" data-name="Path 290" d="M188.279,91.635a6.924,6.924,0,1,0,0,9.138,6.9,6.9,0,0,1,0-9.138Z" transform="translate(-176.163 -89.281)" fill="#ff0016"/>
        <path id="Path_291" data-name="Path 291" d="M200.394,94.381a6.9,6.9,0,0,0,0,9.138,6.9,6.9,0,0,0,0-9.138Z" transform="translate(-188.278 -92.027)" fill="#ff0016"/>
      </g>
      <path id="Path_292" data-name="Path 292" d="M205.628,89.281a6.9,6.9,0,0,0-5.193,2.354,7.032,7.032,0,0,0-.792,1.108h1.584a6.952,6.952,0,0,1,.6,1.385h-2.8a6.86,6.86,0,0,0-.29,1.385h3.378a6.7,6.7,0,0,1,.047.692,6.852,6.852,0,0,1-.037.692H198.74a6.846,6.846,0,0,0,.29,1.385h2.808a6.921,6.921,0,0,1-.613,1.385h-1.582a7,7,0,0,0,.792,1.107,6.921,6.921,0,1,0,5.193-11.492Z" transform="translate(-184.511 -85.127)" fill="#ffa916"/>
    </g>
    <g id="jcb" transform="translate(1273.54 434.923)">
      <rect id="Rectangle_546" data-name="Rectangle 546" width="32" height="22" rx="4" transform="translate(0.46 0.077)" fill="#e5e5e5"/>
      <path id="Path_293" data-name="Path 293" d="M316.428,102.974H295.012V91.9a4.616,4.616,0,0,1,4.616-4.616h20.493v12A3.692,3.692,0,0,1,316.428,102.974Z" transform="translate(-291.505 -84.05)" fill="#fff"/>
      <g id="Group_413" data-name="Group 413" transform="translate(5.076 4.616)">
        <g id="Group_412" data-name="Group 412">
          <path id="Path_294" data-name="Path 294" d="M302.843,103.2h-4.431V93.05c0-1.53,1.794-2.769,3.323-2.769h3.323v10.154C305.058,101.965,304.373,103.2,302.843,103.2Z" transform="translate(-298.412 -90.281)" fill="#0f6caf"/>
          <path id="Path_295" data-name="Path 295" d="M319.643,103.2h-4.431V93.05c0-1.53,1.794-2.769,3.323-2.769h3.323v10.154C321.858,101.965,321.173,103.2,319.643,103.2Z" transform="translate(-307.458 -90.281)" fill="#de0a25"/>
          <path id="Path_296" data-name="Path 296" d="M336.443,103.2h-4.431V93.05c0-1.53,1.794-2.769,3.323-2.769h3.323v10.154C338.658,101.965,337.973,103.2,336.443,103.2Z" transform="translate(-316.504 -90.281)" fill="#138e3b"/>
        </g>
      </g>
    </g>
  </g>
</svg>
