<svg id="Layer_1" data-name="Layer 1" xmlns="http://www.w3.org/2000/svg" xmlns:xlink="http://www.w3.org/1999/xlink" viewBox="0 0 605 390"><defs><style>.cls-1{isolation:isolate;}.cls-2{fill:#fc774c;}.cls-3{fill:#dd3a3a;}.cls-4{fill:#333;}</style></defs><title>credit-card-active</title><g id="_Group_" data-name=" Group "><g id="_Group_2" data-name=" Group 2"><image class="cls-1" width="605" height="69" transform="translate(0 59)" xlink:href="6FD040C4.png"/><image class="cls-1" width="605" height="390" transform="matrix(-1, 0, 0, 1, 605, 0)" xlink:href="6FD040C5.png"/><circle class="cls-2" cx="166" cy="293" r="39"/><path class="cls-3" d="M97,340.5A47.5,47.5,0,1,1,144.5,293,47.54,47.54,0,0,1,97,340.5Z"/><path class="cls-4" d="M97,254a39,39,0,1,1-39,39,39.05,39.05,0,0,1,39-39m0-17a56,56,0,1,0,56,56,56,56,0,0,0-56-56Z"/></g></g></svg>