<?xml version="1.0" encoding="utf-8"?>
<!-- Generator: Adobe Illustrator 21.1.0, SVG Export Plug-In . SVG Version: 6.00 Build 0)  -->
<svg version="1.1" id="Layer_1" xmlns="http://www.w3.org/2000/svg" xmlns:xlink="http://www.w3.org/1999/xlink" x="0px" y="0px"
	 viewBox="0 0 290.6 290.6" style="enable-background:new 0 0 290.6 290.6;" xml:space="preserve">
<style type="text/css">
	.st0{fill:#73E1B4;}
	.st1{fill:#333333;}
</style>
<g>
	<g>
		<path class="st0" d="M154.7,135.9H153c-11.2,8.8-25.2,14.1-40.5,14.1s-29.3-5.3-40.5-14.1h-1.7H23.4v75h178.1v-75L154.7,135.9
			L154.7,135.9z"/>
		<path class="st1" d="M276.6,229.7h-4.7v-51.6h-19.2l-4.7-46.9h-41.7V89.1h-23.7c0.1-1.6,0.2-3.1,0.2-4.7c0-18.9-7.5-36-19.7-48.7
			l3.3-3.3l8.4,8.4l6.6-6.6L158,10.7l-6.6,6.6l8.4,8.4l-3.6,3.6c-10.9-8.6-24.3-14.1-39-15.1V9.4h14.1V0H93.8v9.4h14.1v4.9
			c-14.7,1-28.1,6.4-39,15.1l-3.6-3.6l8.4-8.4L67,10.7L43.6,34.2l6.6,6.6l8.4-8.4l3.3,3.3C49.7,48.3,42.2,65.5,42.2,84.4
			c0,1.6,0.1,3.1,0.2,4.7H18.8v140.6h-4.7C6.3,229.7,0,236,0,243.8s6.3,14.1,14.1,14.1h4.7h9.4h14.1c0,18.1,14.7,32.8,32.8,32.8
			s32.8-14.7,32.8-32.8h89.1c0,18.1,14.7,32.8,32.8,32.8s32.8-14.7,32.8-32.8h9.4h4.7c7.8,0,14.1-6.3,14.1-14.1
			S284.3,229.7,276.6,229.7z M239.5,140.6l3.8,37.5h-37v-37.5H239.5z M112.5,23.4c33.6,0,60.9,27.3,60.9,60.9s-27.3,60.9-60.9,60.9
			S51.6,118,51.6,84.4S78.9,23.4,112.5,23.4z M18.8,248.4h-4.7c-2.6,0-4.7-2.1-4.7-4.7s2.1-4.7,4.7-4.7h4.7V248.4z M75,281.3
			c-12.9,0-23.4-10.5-23.4-23.4s10.5-23.4,23.4-23.4s23.4,10.5,23.4,23.4S87.9,281.3,75,281.3z M106.4,248.4
			c-4-13.5-16.6-23.4-31.4-23.4s-27.4,9.9-31.4,23.4H28.1v-18.8V98.4h15.5c6.5,32.1,34.9,56.3,68.9,56.3s62.4-24.2,68.9-56.3h15.5
			v32.8v46.9v9.4v60.9L106.4,248.4L106.4,248.4z M229.7,281.3c-12.9,0-23.4-10.5-23.4-23.4s10.5-23.4,23.4-23.4s23.4,10.5,23.4,23.4
			S242.6,281.3,229.7,281.3z M262.5,248.4h-1.4c-4-13.5-16.6-23.4-31.4-23.4c-9.2,0-17.5,3.8-23.4,9.9v-47.4h47.4h8.9v42.2
			L262.5,248.4L262.5,248.4z M276.6,248.4h-4.7v-9.4h4.7c2.6,0,4.7,2.1,4.7,4.7S279.1,248.4,276.6,248.4z"/>
		<path class="st1" d="M75,243.8c-7.8,0-14.1,6.3-14.1,14.1c0,7.8,6.3,14.1,14.1,14.1s14.1-6.3,14.1-14.1
			C89.1,250.1,82.8,243.8,75,243.8z M75,262.5c-2.6,0-4.7-2.1-4.7-4.7s2.1-4.7,4.7-4.7s4.7,2.1,4.7,4.7
			C79.7,260.4,77.6,262.5,75,262.5z"/>
		<path class="st1" d="M229.7,243.8c-7.8,0-14.1,6.3-14.1,14.1c0,7.8,6.3,14.1,14.1,14.1c7.8,0,14.1-6.3,14.1-14.1
			C243.8,250.1,237.4,243.8,229.7,243.8z M229.7,262.5c-2.6,0-4.7-2.1-4.7-4.7s2.1-4.7,4.7-4.7c2.6,0,4.7,2.1,4.7,4.7
			C234.4,260.4,232.3,262.5,229.7,262.5z"/>
		<path class="st1" d="M98.4,84.4c0,7.8,6.3,14.1,14.1,14.1s14.1-6.3,14.1-14.1s-6.3-14.1-14.1-14.1c-0.8,0-1.6,0.1-2.3,0.2
			L83.2,39.1l-7.1,6.1l25.7,30C99.8,77.7,98.4,80.9,98.4,84.4z M117.2,84.4c0,2.6-2.1,4.7-4.7,4.7c-2.6,0-4.7-2.1-4.7-4.7
			s2.1-4.7,4.7-4.7C115.1,79.7,117.2,81.8,117.2,84.4z"/>
		<path class="st1" d="M108.2,135.7l0.8-9.3c-21.7-1.8-38.7-20.2-38.7-42c0-10.3,3.8-20.2,10.7-28l-7-6.2
			c-8.4,9.5-13.1,21.6-13.1,34.2C60.9,111,81.7,133.5,108.2,135.7z"/>
	</g>
</g>
</svg>
