<?xml version="1.0" encoding="utf-8"?>
<!-- Generator: Adobe Illustrator 21.1.0, SVG Export Plug-In . SVG Version: 6.00 Build 0)  -->
<svg version="1.1" id="Layer_1" xmlns="http://www.w3.org/2000/svg" xmlns:xlink="http://www.w3.org/1999/xlink" x="0px" y="0px"
	 viewBox="0 0 290.6 290.6" style="enable-background:new 0 0 290.6 290.6;" xml:space="preserve">
<style type="text/css">
	.st0{fill:none;}
	.st1{fill:#333333;}
</style>
<g>
	<g>
		<circle class="st0" cx="173.4" cy="124.2" r="37.5"/>
		<path class="st1" d="M145.3,208.6c-10.3,0-18.8,8.4-18.8,18.8s8.4,18.8,18.8,18.8s18.8-8.4,18.8-18.8S155.7,208.6,145.3,208.6z
			 M145.3,236.7c-5.2,0-9.4-4.2-9.4-9.4s4.2-9.4,9.4-9.4s9.4,4.2,9.4,9.4S150.5,236.7,145.3,236.7z"/>
		<path class="st1" d="M283.9,164.7c-4.2-2.9-9.6-3.6-14.4-1.8l-0.5,0.2L218.3,38.6L90.4,84.3L64.1,21.1h-50C6.3,21.1,0,27.4,0,35.2
			s6.3,14.1,14.1,14.1h29.7l66.3,155c-4.4,6.6-6.9,14.6-6.9,23.1c0,23.3,18.9,42.2,42.2,42.2s42.2-18.9,42.2-42.2
			c0-0.5-0.1-0.9-0.1-1.4l92.9-33.8c6.1-2.2,10.3-8.1,10.3-14.7C290.6,172.4,288.1,167.6,283.9,164.7z M157.4,70.3l14.5,32.6
			l-14.7,5.9l-14.7-33.2L157.4,70.3z M133.5,78.8l18.7,42.1l32.1-12.9l-18.2-40.9L213,50.5l47.2,115.9l-84.6,31.7
			c-7.7-8-18.4-12.9-30.3-12.9c-4.2,0-8.3,0.6-12.1,1.8L94,92.9L133.5,78.8z M14.1,39.8c-2.6,0-4.7-2.1-4.7-4.7s2.1-4.7,4.7-4.7
			h43.7l66.7,160.2c-2.8,1.6-5.4,3.5-7.7,5.6L50,39.8H14.1z M145.3,260.2c-18.1,0-32.8-14.7-32.8-32.8s14.7-32.8,32.8-32.8
			s32.8,14.7,32.8,32.8S163.4,260.2,145.3,260.2z M277.1,183.4L186,216.5c-1-3.8-2.5-7.3-4.5-10.6l91.2-34.2c2-0.7,4-0.5,5.8,0.7
			c1.7,1.2,2.7,3.1,2.7,5.1C281.3,180.1,279.6,182.5,277.1,183.4z"/>
	</g>
</g>
</svg>
