<?xml version="1.0" encoding="utf-8"?>
<!-- Generator: Adobe Illustrator 21.1.0, SVG Export Plug-In . SVG Version: 6.00 Build 0)  -->
<svg version="1.1" id="layer" xmlns="http://www.w3.org/2000/svg" xmlns:xlink="http://www.w3.org/1999/xlink" x="0px" y="0px"
	 viewBox="0 0 463 500" style="enable-background:new 0 0 463 500;" xml:space="preserve">
<style type="text/css">
	.st0{fill:#0079C4;}
	.st1{fill:#1EAA39;}
</style>
<rect y="334.5" class="st0" width="463" height="165.5"/>
<path class="st0" d="M245.7,242.2l-9.7-24.7h-14.2c0,0,17.5,42.3,17.2,42.7c-0.1,0.3-5.9,15-6.2,15.4c0.4,0.1,14.2,0,14.3-0.1
	c0.1-0.7,21.2-58,21.2-58h-13.6L245.7,242.2z"/>
<path class="st0" d="M189.7,196.7c-4.5,0-8.2,3.7-8.2,8.2s3.6,8.2,8.2,8.2c4.5,0,8.2-3.7,8.2-8.2
	C197.9,200.3,194.2,196.7,189.7,196.7"/>
<path class="st0" d="M103.7,258.2c0-1.5,0-2.6,0-4.1c0-7.5,0-15,0-22.6c0-0.2,0-0.4,0-0.6c-0.2-2.6-1.7-13.3-14.7-13.9
	c-0.1,0-3.7,0-3.7,0c-13.4,0.3-15.1,3.1-15.1,3.1v10.7c0,0,4.1-3.2,9.9-3.3c5.7-0.1,8,0.8,9.3,2c0.3,0.3,0.6,0.7,0.9,1.1
	c0.4,0.9,0.8,1.6,1,2.8c0,0-0.1,0.6-0.2,0.7c-0.1,0.1-0.5,0.1-0.5,0.1c-0.1,0-0.4-0.1-0.5-0.1c-0.3-0.2-2.2-1.3-9.6-1
	c-4.6,0.2-9.8,3.5-10.8,4.8c-1.3,1.5-4.4,3.8-4.4,11.6c0,2.6,1,5.8,3.2,9.6c2.2,3.8,9.1,4.9,9.3,4.9c3.5,0.1,7.3-0.1,9-0.6
	c1.8-0.6,3.5-1.8,4-2.2c0.3-0.3,1-0.2,1,0.1c0,0.8,0.2,1.5,0.6,2.2c0.1,0.4,0.2,0.6,0.2,0.6s13.1,0,13.4,0c-0.5-0.6-0.9-1-1.1-1.5
	C104.7,261.6,103.7,259.1,103.7,258.2 M90.1,252.5c-0.9,0.8-2.2,0.9-8.1,0.9c-0.9,0-4.4-1.3-4.4-5.2c0-7.2,7.4-6.5,9.5-6.5
	c2,0,4.2,0.8,4.2,2.2c0,1.1,0.1,4.4,0.1,5.9S90.7,252,90.1,252.5"/>
<path class="st0" d="M377.9,258.2c0-1.5,0-2.6,0-4.1v-22.6c0-0.2,0-0.4,0-0.6c-0.2-2.6-1.6-13.3-14.7-13.9c-0.1,0-3.7,0-3.7,0
	c-13.5,0.3-15.1,3.1-15.1,3.1v10.7c0,0,4.1-3.2,9.8-3.3c5.7-0.1,8,0.8,9.4,2c0.3,0.3,0.6,0.7,0.9,1.1c0.4,0.9,0.8,1.6,1,2.8
	c0,0-0.1,0.6-0.2,0.7s-0.5,0.1-0.5,0.1c-0.1,0-0.4-0.1-0.5-0.1c-0.2-0.2-2.2-1.3-9.5-1c-4.7,0.2-9.8,3.5-10.9,4.8
	c-1.3,1.5-4.4,3.8-4.4,11.6c0,2.6,1,5.8,3.2,9.6c2.2,3.8,9.1,4.9,9.3,4.9c3.5,0.1,7.3-0.1,9-0.6c1.8-0.6,3.5-1.8,4-2.2
	c0.3-0.3,1-0.2,1,0.1c0,0.8,0.3,1.5,0.6,2.2c0.2,0.4,0.3,0.6,0.3,0.6s13.1,0,13.4,0c-0.5-0.6-0.9-1-1.2-1.5
	C378.9,261.6,377.9,259.1,377.9,258.2 M364.3,252.5c-0.9,0.8-2.2,0.9-8.1,0.9c-0.9,0-4.4-1.3-4.4-5.2c0-7.2,7.4-6.5,9.5-6.5
	c2,0,4.2,0.8,4.2,2.2c0,1.1,0,4.4,0,5.9C365.6,251.3,364.9,252,364.3,252.5"/>
<path class="st0" d="M160,216.9c-7.2,0-13.1,2.4-13.4,5.5l0,0c-0.3-3.1-5.6-5.5-12.2-5.5c-5.1,0-9.5,1.5-11.3,3.6c0-1,0-1.9,0-2.9
	c-0.3,0-0.4,0-0.5,0c-3.5,0-7.1,0-10.6,0c-0.5,0-0.6,0.2-0.6,0.6v4.3v40.4v1.1h12.2v-30.3c0-2.5,2.9-4.5,6.6-4.5
	c3.7,0,6.6,2,6.6,4.5V264h12.5v-30.3c0-2.5,2.9-4.5,6.6-4.5s6.6,2,6.6,4.5V264h12.7v-32.5V231v-0.9c0,0,0,0,0-0.1
	C174.6,221,167.2,216.9,160,216.9"/>
<path class="st0" d="M397.4,221.4v-3.9h-12.3v46.4h12.2v-30c1.3-1.1,4.7-3.5,8.6-3.5c5,0,7.3,1.9,7.3,1.9v-13.5c0,0-2.9-1.7-6.5-1.7
	C404,217.1,399.6,219.6,397.4,221.4"/>
<rect x="183.4" y="217.5" class="st0" width="12.4" height="46.4"/>
<rect x="205.1" y="197.6" class="st0" width="12.3" height="66.3"/>
<polygon class="st0" points="35.4,210.3 65.4,210.3 65.4,197.6 35.4,197.6 22.5,197.6 22.5,210.3 22.5,263.9 35.4,263.9 35.4,234.8 
	64.2,234.8 64.2,222.1 35.4,222.1 "/>
<path class="st0" d="M446.1,229.6v-12.1h-10.7v-17.4l-12.2,5.6v11.7h-6.8v12.1h6.8v20.2l0,0c0,0.3,0,0.5,0,0.8v0.5h0.1
	c0.7,11.5,10.6,12.8,15.4,12.8c5,0,6.9-1.3,6.9-1.3V251c0,0-1.1,0.9-5.6,0.9s-4.5-6.2-4.5-6.2v-16.3h10.6V229.6z"/>
<path class="st0" d="M302.7,217.9c-1.3-1.6-16.5-20.3-16.5-20.3h-13.4V264h13.4v-45.8c0,0,14,17.9,16.5,21.2
	c2.5-3.2,16.5-21.1,16.5-21.2V264h13.5v-66.4h-13.5C319.2,197.6,304,216.3,302.7,217.9"/>
<rect class="st1" width="463" height="147.2"/>
</svg>
