<svg id="layer" xmlns="http://www.w3.org/2000/svg" viewBox="0 0 463 500"><title>familymart-vector-logo</title><rect y="334.5" width="463" height="165.5" style="fill:#0079c4"/><path d="M245.7,242.2,236,217.5H221.8s17.5,42.3,17.2,42.7c-.1.3-5.9,15-6.2,15.4.4.1,14.2,0,14.3-.1.1-.7,21.2-58,21.2-58H254.7Z" style="fill:#0079c4"/><path d="M189.7,196.7a8.2,8.2,0,1,0,8.2,8.2,8.24,8.24,0,0,0-8.2-8.2" style="fill:#0079c4"/><path d="M103.7,258.2V230.9c-.2-2.6-1.7-13.3-14.7-13.9H85.3c-13.4.3-15.1,3.1-15.1,3.1v10.7a18,18,0,0,1,9.9-3.3c5.7-.1,8,.8,9.3,2a10.62,10.62,0,0,1,.9,1.1,10.21,10.21,0,0,1,1,2.8,2.54,2.54,0,0,1-.2.7c-.1.1-.5.1-.5.1s-.4-.1-.5-.1c-.3-.2-2.2-1.3-9.6-1-4.6.2-9.8,3.5-10.8,4.8-1.3,1.5-4.4,3.8-4.4,11.6,0,2.6,1,5.8,3.2,9.6s9.1,4.9,9.3,4.9a37.09,37.09,0,0,0,9-.6,14.85,14.85,0,0,0,4-2.2c.3-.3,1-.2,1,.1a4.28,4.28,0,0,0,.6,2.2,3.23,3.23,0,0,0,.2.6H106a6.28,6.28,0,0,1-1.1-1.5c-.2-1-1.2-3.5-1.2-4.4m-13.6-5.7c-.9.8-2.2.9-8.1.9a5.17,5.17,0,0,1-4.4-5.2c0-7.2,7.4-6.5,9.5-6.5s4.2.8,4.2,2.2c0,1.1.1,4.4.1,5.9a3.18,3.18,0,0,1-1.3,2.7" style="fill:#0079c4"/><path d="M377.9,258.2V230.9c-.2-2.6-1.6-13.3-14.7-13.9h-3.7c-13.5.3-15.1,3.1-15.1,3.1v10.7a17.9,17.9,0,0,1,9.8-3.3c5.7-.1,8,.8,9.4,2a10.63,10.63,0,0,1,.9,1.1,10.21,10.21,0,0,1,1,2.8,2.54,2.54,0,0,1-.2.7c-.1.1-.5.1-.5.1s-.4-.1-.5-.1c-.2-.2-2.2-1.3-9.5-1a19.11,19.11,0,0,0-10.9,4.8c-1.3,1.5-4.4,3.8-4.4,11.6,0,2.6,1,5.8,3.2,9.6s9.1,4.9,9.3,4.9a37.09,37.09,0,0,0,9-.6,14.85,14.85,0,0,0,4-2.2c.3-.3,1-.2,1,.1a5.55,5.55,0,0,0,.6,2.2l.3.6h13.4a13.06,13.06,0,0,1-1.2-1.5c-.2-1-1.2-3.5-1.2-4.4m-13.6-5.7c-.9.8-2.2.9-8.1.9a5.17,5.17,0,0,1-4.4-5.2c0-7.2,7.4-6.5,9.5-6.5s4.2.8,4.2,2.2v5.9a2.92,2.92,0,0,1-1.2,2.7" style="fill:#0079c4"/><path d="M160,216.9c-7.2,0-13.1,2.4-13.4,5.5h0c-.3-3.1-5.6-5.5-12.2-5.5-5.1,0-9.5,1.5-11.3,3.6v-2.9H112c-.5,0-.6.2-.6.6V264h12.2V233.7c0-2.5,2.9-4.5,6.6-4.5s6.6,2,6.6,4.5V264h12.5V233.7c0-2.5,2.9-4.5,6.6-4.5s6.6,2,6.6,4.5V264h12.7V230c-.6-9-8-13.1-15.2-13.1" style="fill:#0079c4"/><path d="M397.4,221.4v-3.9H385.1v46.4h12.2v-30c1.3-1.1,4.7-3.5,8.6-3.5,5,0,7.3,1.9,7.3,1.9V218.8a14.25,14.25,0,0,0-6.5-1.7c-2.7,0-7.1,2.5-9.3,4.3" style="fill:#0079c4"/><rect x="183.4" y="217.5" width="12.4" height="46.4" style="fill:#0079c4"/><rect x="205.1" y="197.6" width="12.3" height="66.3" style="fill:#0079c4"/><polygon points="35.4 210.3 65.4 210.3 65.4 197.6 35.4 197.6 22.5 197.6 22.5 210.3 22.5 263.9 35.4 263.9 35.4 234.8 64.2 234.8 64.2 222.1 35.4 222.1 35.4 210.3" style="fill:#0079c4"/><path d="M446.1,229.6V217.5H435.4V200.1l-12.2,5.6v11.7h-6.8v12.1h6.8v20.2h0V251h.1c.7,11.5,10.6,12.8,15.4,12.8,5,0,6.9-1.3,6.9-1.3V251s-1.1.9-5.6.9-4.5-6.2-4.5-6.2V229.4h10.6Z" style="fill:#0079c4"/><path d="M302.7,217.9l-16.5-20.3H272.8V264h13.4V218.2s14,17.9,16.5,21.2c2.5-3.2,16.5-21.1,16.5-21.2V264h13.5V197.6H319.2l-16.5,20.3" style="fill:#0079c4"/><rect width="463" height="147.2" style="fill:#1eaa39"/></svg>