<?xml version="1.0" encoding="utf-8"?>
<!-- Generator: Adobe Illustrator 21.1.0, SVG Export Plug-In . SVG Version: 6.00 Build 0)  -->
<svg version="1.1" id="Layer_1" xmlns="http://www.w3.org/2000/svg" xmlns:xlink="http://www.w3.org/1999/xlink" x="0px" y="0px"
	 viewBox="0 0 290.6 290.6" style="enable-background:new 0 0 290.6 290.6;" xml:space="preserve">
<style type="text/css">
	.st0{fill:#333333;}
	.st1{fill:#73E1B4;}
</style>
<g>
	<g>
		<path class="st0" d="M274.2,65.6H166.8l35.4-5.9c14.6-2.4,25.1-14.9,25.1-29.7c0-16.6-13.5-30.1-30.1-30.1h-0.9
			c-8.5,0-16.6,3.6-22.2,9.8l-35.9,39.4L102.4,9.8C96.7,3.6,88.6,0,80.2,0h-0.9C62.7,0,49.2,13.5,49.2,30.1
			c0,14.8,10.6,27.2,25.1,29.7l35.4,5.9H2.3v51.6h14.1v173.4h103.1H157h103.1v-32.8h-9.4v23.4H157V117.2h6.5l26.3,52.7
			c4,8,12,13,21,13h2.5c12.9,0,23.4-10.5,23.4-23.4s-10.5-23.4-23.4-23.4h-9.4v9.4h9.4c7.8,0,14.1,6.3,14.1,14.1
			s-6.3,14.1-14.1,14.1h-2.5c-5.4,0-10.2-3-12.6-7.8L174,117.2h76.8v79.7h9.4v-79.7h14.1L274.2,65.6L274.2,65.6z M128.9,85.5
			l5.2-10.5h8.3l5.2,10.5v22.3h-18.8L128.9,85.5L128.9,85.5z M119.5,107.8h-1.8l1.8-3.6V107.8z M181.1,16.1
			c3.9-4.3,9.5-6.8,15.3-6.8h0.9c11.4,0,20.7,9.3,20.7,20.7c0,10.2-7.3,18.7-17.3,20.4l-55.4,9.2l-1.3-2.7L181.1,16.1z M58.6,30.1
			c0-11.4,9.3-20.7,20.7-20.7h0.9c5.8,0,11.4,2.5,15.3,6.8L132.7,57l-1.3,2.7l-55.4-9.2C65.9,48.8,58.6,40.2,58.6,30.1z M11.7,107.8
			V75h107.8v8.3l-12.3,24.5H16.4C16.4,107.8,11.7,107.8,11.7,107.8z M25.8,281.3V117.2h76.8l-24.2,48.5c-2.4,4.8-7.2,7.8-12.6,7.8
			h-2.5c-7.8,0-14.1-6.3-14.1-14.1s6.3-14.1,14.1-14.1h9.4v-9.4h-9.4c-12.9,0-23.4,10.5-23.4,23.4s10.5,23.4,23.4,23.4h2.5
			c8.9,0,17-5,21-13l26.3-52.7h6.5v164.1H25.8z M147.7,281.3h-18.8V117.2h18.8V281.3z M157,107.8v-3.6l1.8,3.6H157z M264.8,107.8
			h-4.7h-90.9L157,83.3V75h107.8V107.8z"/>
		<path class="st1" d="M263,182.8c-7.7,0-15,3.5-19.8,9.5L232,206.3l-11.1-13.9c-4.8-6-12.1-9.5-19.8-9.5c-14,0-25.3,11.3-25.3,25.3
			l0,0c0,25.2,12.6,48.7,33.5,62.7l22.7,15.1l22.7-15.1c20.9-14,33.5-37.5,33.5-62.7l0,0C288.3,194.2,276.9,182.8,263,182.8z"/>
	</g>
</g>
</svg>
