<svg id="OBJECTS" xmlns="http://www.w3.org/2000/svg" width="639.045" height="647.648" viewBox="0 0 639.045 647.648">
  <rect id="Rectangle_526" data-name="Rectangle 526" width="639.045" height="639.045" fill="none"/>
  <path id="Path_232" data-name="Path 232" d="M386.21,311.93l2.318,9.954,9.528,3.74L389.3,330.9l-.611,10.21-7.722-6.684-9.9,2.574,3.967-9.428-5.5-8.6,10.182.867Z" transform="translate(155.952 131.643)" fill="#fff"/>
  <path id="Path_233" data-name="Path 233" d="M99.443,44.18l7.323,7.139,10.04-1.991L112.27,58.5l4.991,8.916L107.15,65.951,100.2,73.46,98.476,63.377,89.19,59.1l9.044-4.764Z" transform="translate(37.641 18.645)" fill="#ffca3b"/>
  <path id="Path_234" data-name="Path 234" d="M95.023,383.97l2.645,9.883,9.627,3.413L98.72,402.84l-.284,10.224-7.949-6.456-9.812,2.9,3.683-9.556-5.788-8.433,10.21.555Z" transform="translate(33.159 162.046)" fill="#ffca3b"/>
  <path id="Path_235" data-name="Path 235" d="M285.786,32.27l1.834,6.84,6.669,2.361-5.944,3.854-.2,7.067-5.489-4.451-6.8,2.005,2.545-6.612-4-5.83,7.067.37Z" transform="translate(115.809 13.619)" fill="#ffca3b"/>
  <path id="Path_236" data-name="Path 236" d="M380.874,131.32l5.8,4.039,6.627-2.5-2.048,6.783,4.437,5.517-7.082.156-3.882,5.916-2.332-6.684-6.826-1.863,5.631-4.295Z" transform="translate(158.501 55.421)" fill="#ffca3b"/>
  <path id="Path_237" data-name="Path 237" d="M34.77,392.01l5.816,4.039,6.627-2.5-2.048,6.783,4.423,5.517L42.52,406l-3.882,5.916-2.332-6.684-6.826-1.877,5.631-4.28Z" transform="translate(12.441 165.439)" fill="#fff"/>
  <path id="Path_238" data-name="Path 238" d="M434.131,142.37l-.313,7.067,5.66,4.266-6.826,1.891-2.3,6.684-3.911-5.9-7.068-.128,4.394-5.532-2.062-6.769,6.627,2.474Z" transform="translate(176.986 60.084)" fill="#fff"/>
  <path id="Path_239" data-name="Path 239" d="M186.055,10.9l-.313,7.067,5.66,4.252-6.826,1.906-2.3,6.684-3.911-5.9-7.082-.128,4.408-5.532-2.062-6.769,6.627,2.474Z" transform="translate(72.285 4.6)" fill="#fff"/>
  <path id="Path_240" data-name="Path 240" d="M397.926,380.59l1.834,6.84,6.655,2.375-5.93,3.839-.2,7.082-5.489-4.465-6.8,2.005,2.545-6.612-4-5.83,7.067.37Z" transform="translate(163.135 160.62)" fill="#ffca3b"/>
  <path id="Path_241" data-name="Path 241" d="M9.442,312.38l5.119,4.863,6.925-1.451-3.043,6.385,3.527,6.129-7.025-.924L10.21,332.63l-1.294-6.954-6.456-2.9,6.228-3.37Z" transform="translate(1.038 131.833)" fill="#ffca3b"/>
  <path id="Path_242" data-name="Path 242" d="M429.575,203.324a6.328,6.328,0,1,1,3.3,8.319,6.328,6.328,0,0,1-3.3-8.319Z" transform="translate(181.073 84.196)" fill="#ffca3b"/>
  <path id="Path_243" data-name="Path 243" d="M32.615,206.624a6.328,6.328,0,1,1,3.3,8.319A6.328,6.328,0,0,1,32.615,206.624Z" transform="translate(13.545 85.589)" fill="#ffca3b"/>
  <path id="Path_244" data-name="Path 244" d="M119.458,390.042a3.157,3.157,0,1,1-.043,2.427A3.157,3.157,0,0,1,119.458,390.042Z" transform="translate(50.303 163.81)" fill="#ffca3b"/>
  <path id="Path_245" data-name="Path 245" d="M285.886,420.072a3.171,3.171,0,1,1,1.65,4.152,3.171,3.171,0,0,1-1.65-4.152Z" transform="translate(120.544 176.469)" fill="#ffca3b"/>
  <path id="Path_246" data-name="Path 246" d="M62.561,118.618a3.143,3.143,0,1,1-.055,2.437A3.157,3.157,0,0,1,62.561,118.618Z" transform="translate(26.287 49.266)" fill="#ffca3b"/>
  <path id="Path_247" data-name="Path 247" d="M367.766,165.572a3.171,3.171,0,1,1,1.65,4.152A3.171,3.171,0,0,1,367.766,165.572Z" transform="translate(155.1 69.063)" fill="#ffca3b"/>
  <path id="Path_248" data-name="Path 248" d="M161.578,76.445a3.143,3.143,0,1,1-.042,2.42,3.157,3.157,0,0,1,.042-2.42Z" transform="translate(68.079 31.458)" fill="#fff"/>
  <path id="Path_249" data-name="Path 249" d="M354.786,83.868a3.171,3.171,0,1,1,1.65,4.167,3.171,3.171,0,0,1-1.65-4.167Z" transform="translate(149.622 34.587)" fill="#fff"/>
  <path id="Path_250" data-name="Path 250" d="M361.216,352.242a3.171,3.171,0,1,1,1.65,4.152,3.171,3.171,0,0,1-1.65-4.152Z" transform="translate(152.335 147.843)" fill="#fff"/>
  <path id="Path_251" data-name="Path 251" d="M164.557,410.992a3.157,3.157,0,1,1,1.65,4.167A3.157,3.157,0,0,1,164.557,410.992Z" transform="translate(69.338 172.651)" fill="#fff"/>
  <path id="Path_252" data-name="Path 252" d="M338.466,384.458a3.171,3.171,0,1,1,1.65,4.167,3.171,3.171,0,0,1-1.65-4.167Z" transform="translate(142.734 161.444)" fill="#fff"/>
  <path id="Path_253" data-name="Path 253" d="M83.646,297.918a3.171,3.171,0,1,1,1.65,4.167,3.171,3.171,0,0,1-1.65-4.167Z" transform="translate(35.193 124.922)" fill="#ffca3b"/>
  <path id="Path_254" data-name="Path 254" d="M426.718,319.565a3.143,3.143,0,1,1-.042,2.42A3.157,3.157,0,0,1,426.718,319.565Z" transform="translate(179.976 134.062)" fill="#ffca3b"/>
  <path id="Path_255" data-name="Path 255" d="M372.076,43.872a3.171,3.171,0,1,1,1.65,4.152,3.171,3.171,0,0,1-1.65-4.152Z" transform="translate(156.919 17.702)" fill="#ffca3b"/>
  <path id="Path_256" data-name="Path 256" d="M273.076,76.452a3.171,3.171,0,1,1,1.65,4.152A3.171,3.171,0,0,1,273.076,76.452Z" transform="translate(115.138 31.452)" fill="#ffca3b"/>
  <path id="Path_257" data-name="Path 257" d="M128.583,84.284a6.328,6.328,0,1,1,3.3,8.319,6.328,6.328,0,0,1-3.3-8.319Z" transform="translate(54.048 33.958)" fill="#ffca3b"/>
  <path id="Path_258" data-name="Path 258" d="M263.743,383.334a6.328,6.328,0,1,1,3.3,8.319A6.328,6.328,0,0,1,263.743,383.334Z" transform="translate(111.089 160.166)" fill="#fff"/>
  <path id="Path_259" data-name="Path 259" d="M32.607,173.33a6.342,6.342,0,1,1,3.3,8.276A6.342,6.342,0,0,1,32.607,173.33Z" transform="translate(13.552 71.515)" fill="#fff"/>
  <path id="Path_260" data-name="Path 260" d="M320.155,97.324a6.328,6.328,0,1,1,3.3,8.319,6.328,6.328,0,0,1-3.3-8.319Z" transform="translate(134.894 39.461)" fill="#fff"/>
  <path id="Path_261" data-name="Path 261" d="M53.745,326.134a6.328,6.328,0,1,1,3.3,8.319,6.328,6.328,0,0,1-3.3-8.319Z" transform="translate(22.462 136.026)" fill="#ffca3b"/>
  <path id="Path_262" data-name="Path 262" d="M131.359,147l-87.2-87.81,7.352-6.726Z" transform="translate(18.637 22.14)" fill="#ffca3b"/>
  <path id="Path_263" data-name="Path 263" d="M302.97,375.88l78.951,95.29-7.906,6.044Z" transform="translate(127.862 158.632)" fill="#ffca3b"/>
  <path id="Path_264" data-name="Path 264" d="M158.356,60.838l-22.6-39.561L144.9,17.31Z" transform="translate(57.295 7.305)" fill="#ffca3b"/>
  <path id="Path_265" data-name="Path 265" d="M445.429,64.054,342.19,147.5,438.874,56.56Z" transform="translate(144.414 23.87)" fill="#fff"/>
  <path id="Path_266" data-name="Path 266" d="M96.37,483.086l79.221-106.5L104.575,488.717Z" transform="translate(40.671 158.932)" fill="#fff"/>
  <path id="Path_267" data-name="Path 267" d="M212.12,453.864l10.253-59.114-.341,60Z" transform="translate(89.521 166.596)" fill="#fff"/>
  <path id="Path_268" data-name="Path 268" d="M95.23,169.06,16.89,135.188l4.465-8.888Z" transform="translate(7.128 53.302)" fill="#fff"/>
  <path id="Path_269" data-name="Path 269" d="M301.91,104.2,329.938,45.67l8.632,4.977Z" transform="translate(127.414 19.274)" fill="#ffca3b"/>
  <path id="Path_270" data-name="Path 270" d="M116.033,336.53,64.755,376.3l-5.475-8.319Z" transform="translate(25.018 142.025)" fill="#ffca3b"/>
</svg>
