<?xml version="1.0" encoding="utf-8"?>
<!-- Generator: Adobe Illustrator 21.1.0, SVG Export Plug-In . SVG Version: 6.00 Build 0)  -->
<svg version="1.1" id="Layer_1" xmlns="http://www.w3.org/2000/svg" xmlns:xlink="http://www.w3.org/1999/xlink" x="0px" y="0px"
	 viewBox="0 0 290.6 290.6" style="enable-background:new 0 0 290.6 290.6;" xml:space="preserve">
<style type="text/css">
	.st0{fill:#73E1B4;}
	.st1{fill:#333333;}
</style>
<g>
	<g>
		<path class="st0" d="M107.8,271.9H42.2v-4.7c0-10.3-8.4-18.8-18.8-18.8h-4.7V121.9h112.5v126.6h-4.7c-10.3,0-18.8,8.4-18.8,18.7
			L107.8,271.9L107.8,271.9z"/>
		<path class="st1" d="M182.8,131.3c7.8,0,14.1-6.3,14.1-14.1V14.1c0-7.8-6.3-14.1-14.1-14.1H14.1C6.3,0,0,6.3,0,14.1v103.1v173.4
			h150V131.3H182.8z M187.5,46.9H9.4V32.8h178.1V46.9z M14.1,9.4h168.8c2.6,0,4.7,2.1,4.7,4.7v9.4H9.4v-9.4
			C9.4,11.5,11.5,9.4,14.1,9.4z M9.4,56.3h178.1v60.9c0,2.6-2.1,4.7-4.7,4.7H14.1c-2.6,0-4.7-2.1-4.7-4.7L9.4,56.3L9.4,56.3z
			 M107.8,159.4c0,18.1-14.7,32.8-32.8,32.8s-32.8-14.7-32.8-32.8c0-11.6,6.1-22.2,16-28.1h33.6
			C101.7,137.2,107.8,147.8,107.8,159.4z M140.6,281.3H9.4V130.4c1.5,0.5,3,0.9,4.7,0.9h29.6c-6.9,7.6-10.9,17.6-10.9,28.1
			c0,23.3,18.9,42.2,42.2,42.2s42.2-18.9,42.2-42.2c0-10.6-4-20.5-10.9-28.1h34.3L140.6,281.3L140.6,281.3z"/>
		<path class="st1" d="M140.6,112.5c3.3,0,6.5-0.9,9.4-2.6c2.8,1.6,5.9,2.6,9.4,2.6c10.3,0,18.8-8.4,18.8-18.8S169.7,75,159.4,75
			c-3.4,0-6.6,1-9.4,2.6c-2.9-1.7-6.1-2.6-9.4-2.6c-10.3,0-18.8,8.4-18.8,18.8S130.3,112.5,140.6,112.5z M168.8,93.8
			c0,5.2-4.2,9.4-9.4,9.4s-9.4-4.2-9.4-9.4s4.2-9.4,9.4-9.4S168.8,88.6,168.8,93.8z M140.6,84.4c0.8,0,1.6,0.2,2.4,0.4
			c-1.5,2.7-2.4,5.7-2.4,9s0.9,6.3,2.4,9c-0.8,0.2-1.6,0.4-2.4,0.4c-5.2,0-9.4-4.2-9.4-9.4S135.5,84.4,140.6,84.4z"/>
		<path class="st1" d="M225,159.4c-36.2,0-65.6,29.4-65.6,65.6s29.4,65.6,65.6,65.6s65.6-29.4,65.6-65.6S261.2,159.4,225,159.4z
			 M225,281.3c-31,0-56.3-25.2-56.3-56.3s25.2-56.3,56.3-56.3s56.3,25.2,56.3,56.3S256,281.3,225,281.3z"/>
		<path class="st1" d="M232,187.5h-2.3v-9.4h-9.4v9.4H218c-11.6,0-21.1,9.5-21.1,21.1s9.5,21.1,21.1,21.1H232
			c6.5,0,11.7,5.3,11.7,11.7s-5.3,11.7-11.7,11.7H218c-6.5,0-11.7-5.3-11.7-11.7v-2.3h-9.4v2.3c0,11.6,9.5,21.1,21.1,21.1h2.3v9.4
			h9.4v-9.4h2.3c11.6,0,21.1-9.5,21.1-21.1s-9.5-21.1-21.1-21.1H218c-6.5,0-11.7-5.3-11.7-11.7s5.3-11.7,11.7-11.7H232
			c6.5,0,11.7,5.3,11.7,11.7v2.3h9.4v-2.3C253.1,197,243.7,187.5,232,187.5z"/>
		<polygon class="st1" points="220.3,23.4 220.3,121.9 229.7,121.9 229.7,23.4 235.3,30.9 242.8,25.3 225,1.6 207.2,25.3 
			214.7,30.9 		"/>
		<rect x="220.3" y="131.3" class="st1" width="9.4" height="14.1"/>
		<polygon class="st1" points="267.2,51.6 267.2,135.9 276.6,135.9 276.6,51.6 282.2,59.1 289.7,53.4 271.9,29.7 254.1,53.4 
			261.6,59.1 		"/>
		<rect x="267.2" y="145.3" class="st1" width="9.4" height="14.1"/>
	</g>
</g>
</svg>
