<?xml version="1.0" encoding="utf-8"?>
<!-- Generator: Adobe Illustrator 21.1.0, SVG Export Plug-In . SVG Version: 6.00 Build 0)  -->
<svg version="1.1" id="Layer_1" xmlns="http://www.w3.org/2000/svg" xmlns:xlink="http://www.w3.org/1999/xlink" x="0px" y="0px"
	 viewBox="0 0 290.6 290.6" style="enable-background:new 0 0 290.6 290.6;" xml:space="preserve">
<style type="text/css">
	.st0{fill:#333333;}
	.st1{fill:#FC774C;}
	.st2{fill:#F9F9F9;}
</style>
<g>
	<g>
		<path class="st0" d="M271.9,117.2h18.8V89.1h-15.1l-4.7-18.8H19.8l-4.7,18.8H0v28.1h18.8v51.6v23.4v65.6H0v28.1h290.6v-28.1h-18.8
			v-62.2l5,1.7l13.7-6.9v-18.5l-19-26.6h0.3L271.9,117.2L271.9,117.2z M27.1,79.7h236.4l2.3,9.4h-241L27.1,79.7z M9.4,107.8v-9.4
			h3.4h265.1h3.4v9.4h-9.4h-9.4H28.1h-9.4H9.4z M262.5,117.2V136H126.6h-7.3H28.1v-18.8H262.5z M257.8,184.1l-9.4,3.1l-9.4-3.1v-6.8
			l-12-32h13.8l17,33.9V184.1z M103.1,257.8v-62.7l4.3,2.2l9.7-3.2v63.8L103.1,257.8L103.1,257.8z M103.1,179.5l21.3-34.2h2.1h6.5
			L117.2,177v7.1l-9,3l-5-2.5v-1.8L103.1,179.5L103.1,179.5z M93.8,182.8H42.2H28.1v-4.7h65.6v4.7H93.8z M51.6,192.2h42.2v65.6H51.6
			V192.2z M126.6,179.2l17-33.9h13.8l-12,32v6.8l-9.4,3.1l-9.4-3.1L126.6,179.2L126.6,179.2z M217.1,145.3l12.6,33.7v5.1l-9.4,3.1
			l-9.4-3.1v-6l-4.1-32.8H217.1z M197.4,145.3l4.1,33.1v5.7l-9.4,3.1l-9.4-3.1v-5.7l4.1-33.1L197.4,145.3L197.4,145.3z M173.5,177.5
			v6.6l-9.4,3.1l-9.4-3.1V179l12.6-33.7h10.2L173.5,177.5z M150,192.4l14.1,4.7l14.1-4.7l14.1,4.7l14.1-4.7l14.1,4.7l14.1-4.7
			l4.7,1.6v40.4H150V192.4z M28.1,145.3h85.3l-14.6,23.4H28.1V145.3z M28.1,192.2h14.1v65.6H28.1V192.2z M281.3,276.6H9.4v-9.4h9.4
			h9.4h14.1h60.9h178.1V276.6z M262.5,257.8H126.6V194l9.4,3.1l4.7-1.6v48.2h107.8v-46.6l14.1-4.7L262.5,257.8L262.5,257.8
			L262.5,257.8z M281.3,184.6l-5,2.5l-9-3V177l-15.9-31.7h8.8l21.2,29.6L281.3,184.6L281.3,184.6z"/>
		<path class="st1" d="M248.4,79.7H42.2V18.8c0-7.8,6.3-14.1,14.1-14.1h178.1c7.8,0,14.1,6.3,14.1,14.1L248.4,79.7L248.4,79.7z"/>
		<path class="st2" d="M79.7,56.3H75c-2.6,0-4.7-2.1-4.7-4.7h-9.4c0,7.8,6.3,14.1,14.1,14.1h4.7c7.8,0,14.1-6.3,14.1-14.1
			s-6.3-14.1-14.1-14.1H75c-2.6,0-4.7-2.1-4.7-4.7s2.1-4.7,4.7-4.7h4.7c2.6,0,4.7,2.1,4.7,4.7h9.4c0-7.8-6.3-14.1-14.1-14.1H75
			c-7.8,0-14.1,6.3-14.1,14.1S67.2,46.9,75,46.9h4.7c2.6,0,4.7,2.1,4.7,4.7C84.4,54.1,82.3,56.3,79.7,56.3z"/>
		<polygon class="st2" points="112.5,46.9 131.3,46.9 131.3,65.6 140.6,65.6 140.6,18.8 131.3,18.8 131.3,37.5 112.5,37.5 
			112.5,18.8 103.1,18.8 103.1,65.6 112.5,65.6 		"/>
		<path class="st2" d="M168.8,65.6c10.3,0,18.8-8.4,18.8-18.8v-9.4c0-10.3-8.4-18.8-18.8-18.8S150,27.2,150,37.5v9.4
			C150,57.2,158.4,65.6,168.8,65.6z M159.4,37.5c0-5.2,4.2-9.4,9.4-9.4s9.4,4.2,9.4,9.4v9.4c0,5.2-4.2,9.4-9.4,9.4s-9.4-4.2-9.4-9.4
			V37.5z"/>
		<path class="st2" d="M206.3,46.9h9.4c7.8,0,14.1-6.3,14.1-14.1s-6.3-14.1-14.1-14.1h-18.8v46.9h9.4L206.3,46.9L206.3,46.9z
			 M206.3,28.1h9.4c2.6,0,4.7,2.1,4.7,4.7s-2.1,4.7-4.7,4.7h-9.4V28.1z"/>
	</g>
</g>
</svg>
