<svg id="Capa_1" enable-background="new 0 0 512 512" height="512" viewBox="0 0 512 512" width="512" xmlns="http://www.w3.org/2000/svg"><g id="_x39__1_"><g><path d="m241.444 512c-38.615 0-70.472-11.164-94.685-33.182-24.507-22.286-40.319-55.069-46.997-97.439l-2.434-15.445 113.795-13.124 1.709 14.913c3.956 34.512 20.808 38.938 35.046 38.938 32.386 0 45.005-35.373 50.833-80.438-18.484 11.854-39.485 17.835-62.783 17.835-37.385 0-74.043-16.484-100.573-45.226-29.017-31.436-44.355-74.28-44.355-123.9 0-108.618 70.98-174.932 159.024-174.932 110.256 0 170.976 89.892 170.976 253.116 0 87.441-17.707 191.095-92.781 236.516-24.531 14.843-53.726 22.368-86.775 22.368zm-109.063-119.91c13.925 59.684 50.554 89.91 109.063 89.91 123.609 0 149.556-124.468 149.556-228.884 0-101.784-24.458-223.116-140.976-223.116-77.173 0-129.024 58.244-129.024 144.932 0 90.365 59.214 139.125 114.929 139.125 28.021 0 50.797-11.106 69.631-33.954l29.541-35.836-2.998 46.346c-2.043 31.588-5.334 64.554-15.49 91.644-16.857 44.965-46.682 54.404-68.733 54.404-19.544 0-35.239-6.52-46.649-19.379-7.207-8.122-12.421-18.624-15.574-31.335zm118.256-114.041c-53.32 0-75.061-48.598-75.061-103.117 0-51.975 18.532-99.272 70.465-99.272 51.491 0 78.432 53.648 78.432 106.642 0 50.128-23.797 95.747-73.836 95.747zm-4.596-172.389c-33.444 0-40.465 37.671-40.465 69.272 0 35.256 9.95 73.117 45.061 73.117 41.723 0 43.836-54.769 43.836-65.748 0-30.807-12.898-76.641-48.432-76.641z"/></g></g></svg>