<svg id="Capa_1" enable-background="new 0 0 512 512" height="512" viewBox="0 0 512 512" width="512" xmlns="http://www.w3.org/2000/svg"><g id="_x36__1_"><g><path d="m262.236 512c-136.648 0-186.236-115.437-186.236-252.633 0-167.256 69.492-259.367 195.674-259.367 40.366 0 75.75 11.591 102.332 33.519 27.582 22.755 45.301 55.356 52.662 96.897l2.811 15.855-122.319 12.834-1.83-14.584c-3.423-27.285-15.57-39.452-39.386-39.452-36.667 0-51.596 31.646-58.397 82.04 20.42-12.876 43.682-19.375 69.521-19.375 41.728 0 80.917 16.048 110.35 45.189 31.782 31.468 48.582 74.249 48.582 123.718 0 51.942-17.278 96.252-49.966 128.14-31.214 30.449-75.18 47.219-123.798 47.219zm9.438-482c-125.318 0-165.674 104.096-165.674 229.367 0 118.704 37.458 222.633 156.236 222.633 85.99 0 143.764-58.415 143.764-145.359 0-90.224-66.43-138.908-128.933-138.908-30.848 0-55.961 11.362-76.775 34.735l-29.06 32.633 2.891-43.601c2.057-31.014 5.77-66.472 17.72-94.316 14.841-34.582 39.772-52.116 74.101-52.116 19.219 0 35.024 5.672 46.975 16.858 9.15 8.565 15.653 20.089 19.417 34.373l61.27-6.428c-15.847-58.117-58.622-89.871-121.932-89.871zm-4.719 406.291c-42.128 0-84.775-36.652-84.775-106.703 0-62.578 36.421-95.481 80.056-95.481 43.573 0 81.068 30.936 81.068 103.497 0 54.856-22.865 98.687-76.349 98.687zm-4.719-172.185c-31.344 0-50.056 24.479-50.056 65.481 0 50.358 26.999 76.703 54.775 76.703 35.964 0 46.349-32.412 46.349-68.688 0-47.394-18.137-73.496-51.068-73.496z"/></g></g></svg>