<svg id="Capa_1" enable-background="new 0 0 512 512" height="512" viewBox="0 0 512 512" width="512" xmlns="http://www.w3.org/2000/svg"><g id="_x32__1_"><g><path d="m436.877 512h-361.754l1.845-16.652c4.89-44.134 22.621-85.453 54.207-126.316 27.014-34.948 59.491-64.029 90.9-92.152 48.467-43.398 90.324-80.877 90.324-122.314 0-32.24-16.37-48.587-48.654-48.587-23.733 0-48.477 7.208-52.038 60.671l-1.028 15.431-124.325-12.102 1.67-15.105c11.143-100.824 73.615-154.874 178.066-154.874 109.371 0 170.787 67.344 170.787 148.043 0 41.376-13.624 79.902-41.649 117.78-23.74 32.085-54.792 59.53-82.189 83.744-17.665 15.613-34.688 30.66-47.956 45.324h171.795v117.109zm-327.498-30h297.498v-57.109h-198.3l13.459-22.66c15.343-25.833 42.443-49.785 71.135-75.143 53.298-47.105 113.706-100.496 113.706-179.045 0-58.756-43.532-118.043-140.787-118.043-83.556 0-132.633 38.037-146.083 113.113l63.42 6.173c7.017-45.864 32.986-73.308 80.318-73.308 48.516 0 78.654 30.113 78.654 78.587 0 54.844-48.726 98.473-100.313 144.664-55.066 49.308-117.003 104.767-132.707 182.771z"/></g></g></svg>