<svg id="Capa_1" fill="#F8F8F8" enable-background="new 0 0 512 512" height="512" viewBox="0 0 512 512" width="512" xmlns="http://www.w3.org/2000/svg"><g id="_x33__1_"><g><path d="m255.15 512c-100.472 0-168.065-62.448-178.199-146.959l-1.795-14.969 121.792-13.983 1.925 14.628c4.646 35.318 24.912 55.574 55.6 55.574 27.274 0 54.795-19.553 54.795-63.236 0-40.583-25.818-58.748-51.406-58.748-10.843 0-24.255 2.097-39.864 6.233l-21.898 5.803 15.6-109.056 13.333.332c23.365.582 41.352-4.643 52.079-15.107 9.777-9.536 11.829-21.849 11.829-30.499 0-23.133-14.784-36.944-39.549-36.944-26.558 0-43.976 18.095-47.788 49.645l-1.871 15.487-118.755-19.094 3.315-15.449c19.404-90.421 75.243-135.658 167.808-135.658 100.761 0 162.382 68.993 162.382 136.561 0 37.721-17.158 69.41-51.088 94.525 45.514 20.883 73.449 63.608 73.449 115.816 0 87.395-73.848 165.098-181.694 165.098zm-145.874-135.648c14.452 64.681 70.154 105.648 145.874 105.648 94.953 0 151.694-68.69 151.694-135.098 0-49.523-31.356-86.646-81.832-96.882l-41.811-8.479 37.917-19.554c42.638-21.988 63.364-49.932 63.364-85.426.001-44.248-41.07-106.561-132.381-106.561-72.646 0-115.791 30.791-134.647 96.586l57.232 9.202c10.053-38.837 38.865-60.72 74.704-60.72 41.6 0 69.549 26.903 69.549 66.944 0 20.677-7.221 38.649-20.881 51.974-10.24 9.988-28.742 21.505-60.361 23.404l-5.628 39.344c9.396-1.614 18.022-2.428 25.792-2.428 21.957 0 42.224 8.347 57.065 23.503 15.924 16.261 24.341 38.822 24.341 65.244 0 57.603-38.218 93.236-84.795 93.236-39.638 0-71.662-23.979-82.58-67.128z"/></g></g></svg>