<svg id="Capa_1" fill="#F8F8F8" enable-background="new 0 0 512 512" height="512" viewBox="0 0 512 512" width="512" xmlns="http://www.w3.org/2000/svg"><g id="_x35__1_"><g><path d="m253.989 512c-96.718 0-164.481-55.22-176.845-144.11l-2.146-15.426 123.717-12.493 1.873 14.463c4.843 37.404 30.814 54.146 54.404 54.146 34.617 0 55.284-29.402 55.284-78.65 0-47.142-20.584-73.104-57.961-73.104-22.818 0-42.964 9.837-61.59 30.073l-5.334 5.795-99.714-14.071 53.505-278.623h276.065v117.819h-179.858l-7.709 42.53c14.708-4.398 29.667-6.616 44.716-6.616 43.894 0 84.741 16.622 115.018 46.804 32.44 32.338 49.586 76.517 49.586 127.761 0 47.967-17.083 93.039-48.103 126.912-32.991 36.028-79.738 56.79-134.908 56.79zm-144.259-132.89c15.391 64.758 68.252 102.89 144.259 102.89 100.454 0 153.012-77.322 153.012-153.702 0-94.908-67.715-144.565-134.604-144.565-40.391 0-65.699 19.106-84.299 26.792l22.24-122.707h174.909v-57.818h-221.278l-42.885 223.323 53.143 7.499c22.981-22.565 49.217-33.996 78.089-33.996 25.895 0 47.78 9.111 63.292 26.349 16.37 18.191 24.67 44.016 24.67 76.755 0 34.551-8.427 61.904-25.047 81.3-15.113 17.637-36.506 27.35-60.237 27.35-20.211 0-39.636-7.483-54.698-21.072-12.834-11.579-21.905-26.902-26.656-44.852z"/></g></g></svg>