<svg id="Capa_1" enable-background="new 0 0 512 512" height="512" viewBox="0 0 512 512" width="512" xmlns="http://www.w3.org/2000/svg"><g id="_x37__1_"><g><path d="m266.79 512h-123.501l.363-15.355c1.625-68.667 16.465-139.617 44.107-210.879 23.646-60.949 54.488-117.037 91.863-167.127h-203.622v-118.639h360v91.157c-3.177 3.606-37.495 30.645-85.131 112.631-27.364 47.099-48.52 97.872-62.878 150.907-14.349 53.019-21.509 100.87-21.283 142.222zm-92.552-30h62.682c1.33-40.384 8.75-85.762 22.113-135.143 15.044-55.568 37.214-108.773 65.896-158.14 27.168-46.761 54.417-83.841 81.07-110.336v-48.381h-299.999v58.639h236.189c-11.308 15.81-77.455 81.666-126.461 207.978-24.316 62.687-38.249 124.973-41.49 185.383z"/></g></g></svg>