<?xml version="1.0" encoding="utf-8"?>
<!-- Generator: Adobe Illustrator 24.3.0, SVG Export Plug-In . SVG Version: 6.00 Build 0)  -->
<svg version="1.1" id="圖層_1" xmlns="http://www.w3.org/2000/svg" xmlns:xlink="http://www.w3.org/1999/xlink" x="0px" y="0px"
	 viewBox="0 0 462.87 90.24" style="enable-background:new 0 0 462.87 90.24;" xml:space="preserve">
<style type="text/css">
	.st0{fill:#F7AA99;}
	.st1{fill:#FC774C;}
	.st2{fill:#F8F8F8;}
</style>
<g>
	<path class="st0" d="M25.38,50.76h-5.64v39.48h5.64c1.55,0,2.82-1.27,2.82-2.82V53.58C28.2,52.03,26.93,50.76,25.38,50.76z"/>
	<path class="st0" d="M64.86,50.76c-1.55,0-2.82,1.27-2.82,2.82v33.84c0,1.55,1.27,2.82,2.82,2.82h5.64V50.76H64.86z"/>
	<path class="st1" d="M90.24,45.12C90.24,20.2,70.04,0,45.12,0S0,20.2,0,45.12c0,5.41,0.95,10.6,2.7,15.41
		C0.98,63.46,0,66.86,0,70.5c0,9.94,7.35,18.17,16.92,19.54V50.96c-2.81,0.4-5.43,1.4-7.73,2.85c-0.47-2.35-0.73-4.79-0.73-7.29
		c0-20.25,16.41-36.66,36.66-36.66s36.66,16.41,36.66,36.66c0,2.5-0.25,4.93-0.72,7.29c-2.3-1.46-4.92-2.45-7.74-2.86v39.08
		c9.57-1.37,16.92-9.59,16.92-19.54c0-3.64-0.98-7.04-2.7-9.97C89.29,55.72,90.24,50.53,90.24,45.12L90.24,45.12z"/>
</g>
<g>
	<path class="st2" d="M151.11,45.46c0.14-0.72,0.22-1.7,0.22-2.95c0-0.72-0.05-1.43-0.14-2.12c-0.1-0.7-0.26-1.32-0.5-1.87
		c-0.24-0.55-0.6-0.98-1.08-1.3c-0.48-0.31-1.11-0.47-1.87-0.47c-0.86,0-1.66,0.19-2.38,0.58c-0.72,0.38-1.36,0.88-1.91,1.48
		c-0.55,0.6-0.98,1.3-1.3,2.09c-0.31,0.79-0.47,1.62-0.47,2.48c0,1.25,0.32,2.21,0.97,2.88c0.65,0.67,1.5,1.22,2.56,1.66
		c1.06,0.43,2.26,0.79,3.6,1.08c1.34,0.29,2.74,0.62,4.18,1.01c1.2,0.34,2.4,0.77,3.6,1.3c1.2,0.53,2.27,1.24,3.2,2.12
		c0.94,0.89,1.69,2.04,2.27,3.46c0.58,1.42,0.86,3.18,0.86,5.29c0,3.02-0.6,5.57-1.8,7.63c-1.2,2.06-2.86,3.74-4.97,5.04
		c-2.11,1.3-4.62,2.23-7.52,2.81c-2.9,0.58-6.06,0.86-9.47,0.86c-3.46,0-6.28-0.23-8.46-0.68c-2.18-0.46-3.9-0.95-5.15-1.48
		c-1.49-0.62-2.59-1.34-3.31-2.16l2.45-9.86h12.67c-0.05,0.43-0.1,1.02-0.14,1.76c-0.05,0.75-0.07,1.33-0.07,1.76
		c0,0.58,0.07,1.18,0.22,1.8c0.14,0.62,0.37,1.2,0.68,1.73c0.31,0.53,0.76,0.96,1.33,1.3c0.58,0.34,1.3,0.5,2.16,0.5
		c0.96,0,1.81-0.22,2.56-0.65s1.37-0.97,1.87-1.62s0.89-1.37,1.15-2.16c0.26-0.79,0.4-1.57,0.4-2.34c0-1.06-0.25-1.94-0.76-2.66
		c-0.5-0.72-1.19-1.33-2.05-1.84s-1.86-0.94-2.99-1.3s-2.29-0.73-3.49-1.12c-1.15-0.33-2.37-0.74-3.64-1.22
		c-1.27-0.48-2.44-1.15-3.49-2.02c-1.06-0.86-1.93-1.96-2.63-3.28c-0.7-1.32-1.04-3.01-1.04-5.08c0-3.07,0.78-5.65,2.34-7.74
		c1.56-2.09,3.53-3.78,5.9-5.08c2.38-1.3,4.98-2.22,7.81-2.77c2.83-0.55,5.52-0.83,8.06-0.83c3.36,0,6.25,0.4,8.68,1.19
		s4.26,1.72,5.51,2.77l-2.66,10.01H151.11z"/>
	<path class="st2" d="M198.2,31.49c4.13,0,7.48,0.53,10.04,1.58c2.57,1.06,4.6,2.69,6.08,4.9c0.96,1.49,1.7,3.17,2.23,5.04
		c0.53,1.87,0.79,4.03,0.79,6.48c0,2.11-0.19,4.22-0.58,6.34c-0.38,2.11-0.92,4.14-1.62,6.08c-0.7,1.94-1.54,3.77-2.52,5.47
		c-0.98,1.7-2.08,3.2-3.28,4.5c-2.26,2.45-4.86,4.16-7.81,5.15c-2.95,0.98-6.59,1.48-10.91,1.48c-4.18,0-7.54-0.43-10.08-1.3
		c-2.54-0.86-4.56-2.26-6.05-4.18c-1.06-1.34-1.88-3.05-2.48-5.11c-0.6-2.06-0.9-4.66-0.9-7.78c0-5.33,0.95-10.09,2.84-14.29
		c1.9-4.2,4.6-7.52,8.1-9.97c2.11-1.49,4.46-2.59,7.06-3.31C191.72,31.85,194.75,31.49,198.2,31.49z M190.07,73.47
		c1.1,0,2.15-0.49,3.13-1.48c0.98-0.98,1.9-2.3,2.74-3.96c0.84-1.66,1.61-3.54,2.3-5.65c0.7-2.11,1.28-4.3,1.76-6.55
		c0.48-2.26,0.85-4.5,1.12-6.73c0.26-2.23,0.4-4.26,0.4-6.08c0-2.5-0.25-4.21-0.76-5.15c-0.5-0.94-1.24-1.4-2.2-1.4
		c-1.1,0-2.16,0.48-3.17,1.44c-1.01,0.96-1.96,2.24-2.84,3.85c-0.89,1.61-1.68,3.46-2.38,5.54c-0.7,2.09-1.3,4.24-1.8,6.44
		c-0.5,2.21-0.89,4.39-1.15,6.55c-0.26,2.16-0.4,4.15-0.4,5.98c0,2.74,0.3,4.62,0.9,5.65C188.33,72.95,189.1,73.47,190.07,73.47z"/>
	<path class="st2" d="M240.75,61.59c-0.24,1.06-0.43,1.97-0.58,2.74c-0.14,0.77-0.22,1.49-0.22,2.16c0,1.68,0.59,3.02,1.76,4.03
		c1.18,1.01,2.92,1.51,5.22,1.51c1.68,0,3.06-0.29,4.14-0.86s1.97-1.34,2.66-2.3c0.7-0.96,1.25-2.06,1.66-3.31
		c0.41-1.25,0.76-2.57,1.04-3.96l6.12-29.38h6.55l-6.26,29.52c-0.48,2.3-1.18,4.46-2.09,6.48c-0.91,2.02-2.22,3.79-3.92,5.33
		c-1.71,1.54-3.9,2.75-6.59,3.64s-6.02,1.33-10.01,1.33c-5.52,0-9.6-0.9-12.24-2.7c-2.64-1.8-3.96-4.57-3.96-8.32
		c0-1.68,0.22-3.82,0.65-6.41c0.43-2.59,0.98-5.4,1.66-8.42l4.39-20.45h16.34L240.75,61.59z"/>
	<path class="st2" d="M308.86,77.93h-16.85l-7.99-33.05l-7.06,33.05h-6.48l9.72-45.72h17.21l7.56,33.48l7.13-33.48h6.62
		L308.86,77.93z"/>
	<path class="st2" d="M320.46,77.93l9.72-45.72h19.37c2.98,0,5.58,0.3,7.81,0.9c2.23,0.6,4.08,1.6,5.54,2.99
		c1.46,1.39,2.57,3.22,3.31,5.47c0.74,2.26,1.12,5.02,1.12,8.28c0,3.5-0.44,6.94-1.33,10.3c-0.89,3.36-2.37,6.36-4.43,9
		c-2.06,2.64-4.76,4.76-8.1,6.37c-3.34,1.61-7.45,2.41-12.35,2.41H320.46z M340.18,72.89c1.58,0,2.99-0.66,4.21-1.98
		c1.22-1.32,2.28-3,3.17-5.04c0.89-2.04,1.63-4.3,2.23-6.77c0.6-2.47,1.08-4.86,1.44-7.16c0.36-2.3,0.62-4.37,0.79-6.19
		c0.17-1.82,0.25-3.12,0.25-3.89c0-1.49-0.3-2.65-0.9-3.49c-0.6-0.84-1.64-1.26-3.13-1.26h-3.46l-7.7,35.78H340.18z"/>
	<path class="st2" d="M410.96,77.93h-16.85l-1.01-11.45h-13.32l-5.11,11.45h-6.98l21.24-45.72h17.06L410.96,77.93z M382.16,61.23
		h10.44l-1.66-19.58L382.16,61.23z"/>
	<path class="st2" d="M462.87,43.08c0,2.83-0.79,5.45-2.38,7.85c-1.58,2.4-4.2,4.22-7.85,5.47L461,77.93h-16.06l-6.34-19.94h-0.79
		l-4.25,19.94h-15.55l9.72-45.72h18.94c2.21,0,4.29,0.13,6.26,0.4c1.97,0.26,3.68,0.79,5.15,1.58c1.46,0.79,2.63,1.9,3.49,3.31
		C462.44,38.92,462.87,40.78,462.87,43.08z M442.14,53.38c1.25,0,2.32-0.42,3.2-1.26c0.89-0.84,1.61-1.86,2.16-3.06
		c0.55-1.2,0.95-2.48,1.19-3.85c0.24-1.37,0.36-2.56,0.36-3.56c0-1.25-0.22-2.31-0.65-3.2c-0.43-0.89-1.37-1.33-2.81-1.33h-3.24
		l-3.6,16.27H442.14z"/>
</g>
</svg>
