<?xml version="1.0" encoding="utf-8"?>
<!-- Generator: Adobe Illustrator 24.2.3, SVG Export Plug-In . SVG Version: 6.00 Build 0)  -->
<svg version="1.1" id="圖層_1" xmlns="http://www.w3.org/2000/svg" xmlns:xlink="http://www.w3.org/1999/xlink" x="0px" y="0px"
	 viewBox="0 0 800 800" style="enable-background:new 0 0 800 800;" xml:space="preserve">
<style type="text/css">
	.st0{fill:#F7AA99;}
	.st1{fill:#FC774C;}
</style>
<g>
	<path class="st0" d="M334.4,418.8h-18.8V550h18.8c5.2,0,9.4-4.2,9.4-9.4V428.1C343.8,423,339.5,418.8,334.4,418.8z"/>
	<path class="st0" d="M465.6,418.8c-5.2,0-9.4,4.2-9.4,9.4v112.5c0,5.2,4.2,9.4,9.4,9.4h18.8V418.8H465.6z"/>
	<path class="st1" d="M550,400c0-82.8-67.2-150-150-150s-150,67.2-150,150c0,18,3.2,35.2,9,51.2c-5.7,9.7-9,21-9,33.1
		c0,33,24.4,60.4,56.3,65V419.4c-9.3,1.3-18.1,4.7-25.7,9.5c-1.6-7.8-2.4-15.9-2.4-24.2c0-67.3,54.6-121.9,121.9-121.9
		s121.9,54.6,121.9,121.9c0,8.3-0.8,16.4-2.4,24.2c-7.6-4.9-16.4-8.1-25.7-9.5v129.9c31.8-4.6,56.3-31.9,56.3-65
		c0-12.1-3.3-23.4-9-33.1C546.8,435.2,550,418,550,400L550,400z"/>
</g>
</svg>
