<?xml version="1.0" encoding="utf-8"?>
<!-- Generator: Adobe Illustrator 24.3.0, SVG Export Plug-In . SVG Version: 6.00 Build 0)  -->
<svg version="1.1" id="圖層_1" xmlns="http://www.w3.org/2000/svg" xmlns:xlink="http://www.w3.org/1999/xlink" x="0px" y="0px"
	 viewBox="0 0 24 18.6" style="enable-background:new 0 0 24 18.6;" xml:space="preserve">
<style type="text/css">
	.st0{fill:#5B5B5B;}
	.st1{fill:#616161;}
</style>
<g>
	<path class="st0" d="M11.6,12c1.6,0,3.2-0.1,4.8,0c0.8,0,1-0.2,1-1c-0.1-0.8,0-1.5,0-2.3c0-0.4,0.1-0.8,0.6-1c0.4-0.2,0.7,0,1,0.3
		c1.4,1.4,2.9,2.8,4.4,4.2c0.7,0.6,0.7,1.3,0,1.9c-1.5,1.4-3,2.8-4.5,4.2c-0.3,0.3-0.7,0.4-1.1,0.2c-0.4-0.2-0.5-0.5-0.4-0.9
		c0-0.8-0.1-1.6,0-2.3c0.1-0.8-0.2-1.1-1-1.1c-3.2,0.1-6.4,0.1-9.5,0C3.1,14.1,0,11,0,7.2s3.1-7,6.9-7.1c0.8,0,1.7,0,1.7,1
		C8.7,2.2,7.8,2.2,7,2.2c-2.8,0.1-4.9,2.3-4.9,5c0.1,2.7,2.2,4.8,5,4.8C8.6,12,10.1,12,11.6,12z"/>
	<path class="st1" d="M19.5,1.2c0.1-0.6,0.4-1.1,1-1.1c0.7-0.1,1.1,0.3,1.2,1c0,0.7-0.4,1.1-1.1,1.1C19.9,2.2,19.6,1.8,19.5,1.2z"/>
	<path class="st1" d="M15.1,1.1c0.1-0.6,0.4-1,1-1.1c0.7,0,1.1,0.4,1.1,1s-0.4,1.1-1.1,1.1C15.6,2.2,15.2,1.7,15.1,1.1z"/>
	<path class="st1" d="M11.7,0c0.7,0.1,1.2,0.4,1.2,1.1c0,0.6-0.4,1-1,1.1c-0.7,0-1.1-0.4-1.1-1.1C10.8,0.5,11.2,0.2,11.7,0z"/>
</g>
</svg>
